<svg width="111" height="109" viewBox="0 0 111 109" fill="none" xmlns="http://www.w3.org/2000/svg">
<rect width="111" height="109" rx="54.5" fill="#B3261E"/>
<path d="M55.5 81.583C52.1146 81.583 48.9436 80.9398 45.987 79.6533C43.0304 78.3669 40.4575 76.629 38.2682 74.4398C36.079 72.2505 34.3411 69.6776 33.0547 66.721C31.7682 63.7644 31.125 60.5934 31.125 57.208C31.125 53.8226 31.7682 50.6516 33.0547 47.695C34.3411 44.7384 36.079 42.1655 38.2682 39.9762C40.4575 37.787 43.0304 36.0492 45.987 34.7627C48.9436 33.4762 52.1146 32.833 55.5 32.833C58.8854 32.833 62.0564 33.4762 65.013 34.7627C67.9696 36.0492 70.5425 37.787 72.7318 39.9762C74.921 42.1655 76.6589 44.7384 77.9453 47.695C79.2318 50.6516 79.875 53.8226 79.875 57.208C79.875 60.5934 79.2318 63.7644 77.9453 66.721C76.6589 69.6776 74.921 72.2505 72.7318 74.4398C70.5425 76.629 67.9696 78.3669 65.013 79.6533C62.0564 80.9398 58.8854 81.583 55.5 81.583ZM63.0833 68.583L66.875 64.7913L58.2083 56.1247V43.6663H52.7917V58.2913L63.0833 68.583ZM38.1667 28.3643L41.9583 32.1559L30.4479 43.6663L26.6562 39.8747L38.1667 28.3643ZM72.8333 28.3643L84.3438 39.8747L80.5521 43.6663L69.0417 32.1559L72.8333 28.3643ZM55.5 76.1663C60.7813 76.1663 65.2613 74.3269 68.9401 70.6481C72.6189 66.9693 74.4583 62.4893 74.4583 57.208C74.4583 51.9268 72.6189 47.4467 68.9401 43.7679C65.2613 40.0891 60.7813 38.2497 55.5 38.2497C50.2188 38.2497 45.7387 40.0891 42.0599 43.7679C38.3811 47.4467 36.5417 51.9268 36.5417 57.208C36.5417 62.4893 38.3811 66.9693 42.0599 70.6481C45.7387 74.3269 50.2188 76.1663 55.5 76.1663Z" fill="#FEE2E1"/>
</svg>
