<svg width="18" height="22" viewBox="0 0 18 22" fill="none" xmlns="http://www.w3.org/2000/svg">
<path d="M3.66602 10C3.66602 7.172 3.66602 5.757 4.44736 4.879C5.22782 4 6.48563 4 8.99945 4H11.6662C14.18 4 15.4378 4 16.2183 4.879C16.9996 5.757 16.9996 7.172 16.9996 10V15C16.9996 17.828 16.9996 19.243 16.2183 20.121C15.4378 21 14.18 21 11.6662 21H8.99945C6.48563 21 5.22782 21 4.44736 20.121C3.66602 19.243 3.66602 17.828 3.66602 15V10Z" stroke="#7F7F7F" stroke-opacity="0.47" stroke-width="1.5"/>
<path opacity="0.5" d="M3.66672 18C2.95946 18 2.28117 17.6839 1.78106 17.1213C1.28096 16.5587 1 15.7956 1 15V9C1 5.229 1 3.343 2.0418 2.172C3.0836 1.001 4.75918 1 8.11125 1H11.6669C12.3741 1 13.0524 1.31607 13.5525 1.87868C14.0526 2.44129 14.3336 3.20435 14.3336 4" stroke="#7F7F7F" stroke-opacity="0.47" stroke-width="1.5"/>
</svg>




