<svg width="384" height="384" viewBox="0 0 384 384" fill="none" xmlns="http://www.w3.org/2000/svg">
<path d="M192 0C298.039 0 384 85.9613 384 192C384 298.039 298.039 384 192 384C85.9613 384 0 298.039 0 192C0 85.9613 85.9613 0 192 0ZM157.545 81.957C164.462 73.0962 158.329 58.4206 147.695 62.0635C93.5723 80.6061 54.6642 131.928 54.6641 192.337C54.6641 268.372 116.302 330.011 192.337 330.011C234.228 330.011 271.75 311.3 297 281.78C304.318 273.225 292.908 262.118 282.103 265.279C271.717 268.317 260.731 269.947 249.363 269.947C185.069 269.947 132.949 217.826 132.949 153.532C132.949 126.544 142.132 101.701 157.545 81.957Z" fill="#007CA6"/>
</svg>
