<svg width="713" height="595" viewBox="0 0 713 595" fill="none" xmlns="http://www.w3.org/2000/svg">
<path d="M29.709 59.8358V238.086M29.709 238.086H207.959M29.709 238.086L167.556 108.557C199.485 76.6125 238.986 53.2764 282.373 40.7266C325.76 28.1769 371.619 26.8225 415.671 36.7898C459.723 46.7572 500.533 67.7214 534.291 97.7263C568.05 127.731 593.657 165.799 608.724 208.377M683.292 535.169V356.919M683.292 356.919H505.042M683.292 356.919L545.446 486.447C513.517 518.392 474.016 541.729 430.629 554.278C387.241 566.828 341.382 568.183 297.33 558.215C253.278 548.248 212.469 527.283 178.71 497.279C144.952 467.274 119.344 429.206 104.277 386.627" stroke="#1E1E1E" stroke-width="59.4167" stroke-linecap="round" stroke-linejoin="round"/>
</svg>
