<svg width="572" height="630" viewBox="0 0 572 630" fill="none" xmlns="http://www.w3.org/2000/svg">
<path d="M28.75 143.5H85.9167M85.9167 143.5H543.25M85.9167 143.5V543.667C85.9167 558.828 91.9396 573.369 102.66 584.089C113.381 594.81 127.922 600.833 143.083 600.833H428.917C444.078 600.833 458.619 594.81 469.34 584.089C480.06 573.369 486.083 558.828 486.083 543.667V143.5M171.667 143.5V86.3332C171.667 71.1716 177.69 56.6311 188.41 45.9102C199.131 35.1894 213.672 29.1665 228.833 29.1665H343.167C358.328 29.1665 372.869 35.1894 383.59 45.9102C394.31 56.6311 400.333 71.1716 400.333 86.3332V143.5M228.833 286.417V457.917M343.167 286.417V457.917" stroke="#1E1E1E" stroke-width="57.1667" stroke-linecap="round" stroke-linejoin="round"/>
</svg>
