<svg width="559" height="673" viewBox="0 0 559 673" fill="none" xmlns="http://www.w3.org/2000/svg">
<path d="M367.789 13.094C348.52 1.01553 325.242 -2.91383 303.076 2.17113L191.643 27.7356C169.477 32.8209 150.239 46.5039 138.161 65.7737C126.083 85.0433 122.155 108.322 127.24 130.488L133.631 158.348L22.1989 183.911C6.81259 187.441 -2.79934 202.776 0.730121 218.162C4.25971 233.549 19.5939 243.16 34.9801 239.63L62.8366 233.239L62.8551 233.321L68.9928 231.912V586.543C68.9928 609.285 78.0269 631.096 94.1071 647.177C110.187 663.258 131.998 672.293 154.74 672.293H440.557C463.299 672.293 485.11 663.258 501.19 647.177C517.271 631.096 526.304 609.285 526.304 586.543V314.043H526.303V243.541C526.303 227.802 513.544 215.043 497.805 215.043C482.066 215.043 469.307 227.802 469.307 243.541V314.043H469.137V586.543C469.137 594.124 466.126 601.395 460.766 606.755C455.406 612.115 448.136 615.126 440.557 615.126H154.74C147.161 615.126 139.892 612.115 134.532 606.755C129.172 601.395 126.16 594.124 126.16 586.543V218.711L452.85 143.765L452.869 143.846L508.589 131.064L508.57 130.983L536.426 124.592C551.813 121.062 561.425 105.727 557.895 90.3411C554.366 74.9546 539.031 65.3436 523.645 68.8733L412.214 94.4368L405.823 66.5774C400.738 44.4114 387.057 25.1725 367.789 13.094ZM354.812 300.71C339.026 300.711 326.229 313.507 326.229 329.293V500.793C326.229 516.579 339.026 529.376 354.812 529.376C370.598 529.376 383.395 516.579 383.395 500.793V329.293C383.395 313.507 370.598 300.71 354.812 300.71ZM240.485 300.71C224.699 300.711 211.902 313.507 211.902 329.293V500.793C211.902 516.579 224.699 529.376 240.485 529.376C256.271 529.376 269.069 516.579 269.069 500.793V329.293C269.069 313.507 256.271 300.71 240.485 300.71ZM315.857 57.8899C323.244 56.1953 331.003 57.5057 337.425 61.5315C343.848 65.5575 348.41 71.9705 350.105 79.3596L356.496 107.219L189.349 145.565L182.959 117.705C181.264 110.316 182.573 102.556 186.599 96.133C190.625 89.7102 197.037 85.1492 204.424 83.4543L315.857 57.8899Z" fill="#B3B3B3"/>
</svg>
